<?xml version="1.0" encoding="utf-8"?>
<!-- Generator: Adobe Illustrator 24.1.2, SVG Export Plug-In . SVG Version: 6.00 Build 0)  -->
<svg version="1.1" id="Layer_1" xmlns="http://www.w3.org/2000/svg" xmlns:xlink="http://www.w3.org/1999/xlink" x="0px" y="0px"
	 viewBox="0 0 841.89 595.28" style="enable-background:new 0 0 841.89 595.28;" xml:space="preserve">
<style type="text/css">
	.st0{fill:#221F1F;}
	.st1{fill:#FFFFFF;}
	.st2{fill:#F68A24;}
	.st3{fill:#09658F;}
	.st4{fill:#CF3028;}
	.st5{fill:#652B1C;}
	.st6{fill:#437639;}
	.st7{fill:#F39123;}
</style>
<g>
	<g>
		<g>
			<path class="st2" d="M165.37,200.39c2.42,2.51,2.08,4.5,3.72,7.97c1.65,3.46,1.56,5.63,2.86,8.49s1.82,3.29,3.72,9.53
				c1.91,6.23,0.95,7.62,2.77,10.91s2.86,4.94,4.24,8.14c1.39,3.2,1.47,7.79,1.3,8.57c-0.17,0.78,4.85-0.69,7.01-1.21
				c2.16-0.52,2.42,0.69,1.21-1.39c-1.21-2.08-1.65-0.52-1.39-4.16c0.26-3.64-0.26-7.01-0.26-8.57s0.09-3.98-0.69-6.58
				c-0.78-2.6-2.51-14.98-2.51-14.98s-0.78-10.48-1.04-11.6c-0.26-1.13-4.76-0.61-9.01-2.42c-4.24-1.82-8.4-2.3-9.96-2.25
				C165.8,200.87,165.37,200.39,165.37,200.39z"/>
		</g>
		<g>
			<path class="st2" d="M204.6,196.41c0,0-0.95,0.35-3.12,1.82c-2.16,1.47-3.29,0.95-4.07,2.16c-0.78,1.21-2.16,2.16-3.64,2.86
				s-3.9,1.65-4.42,2.08c-0.52,0.43-1.13,0.69-0.87,3.98s0.43,6.06,1.21,10.13c0.78,4.07,1.39,10.13,1.39,10.82
				c0,0.69,1.13,5.89,1.13,7.45s0.06,6.49,0.72,9.7s-0.46,4.59,0.84,4.94s6.23,0,6.23,0s-0.69-0.61-0.69-1.99s0-1.91,0.17-3.29
				s0.87-2.94,0.87-4.42s0.43-4.16,0.61-6.32c0.17-2.16,0.95-3.64,0.95-6.23c0-2.6,0.26-4.5,0.26-6.75c0-2.25,0.61-4.42,0.61-6.84
				c0-2.42,0.52-3.64,0.78-7.01c0.26-3.38,0.43-4.76,0.52-6.32s0.52-3.9,0.52-4.76C204.6,197.54,204.6,196.41,204.6,196.41z"/>
		</g>
		<g>
			<path class="st3" d="M209.1,198.32c0,0,1.82,1.13,3.9,2.08c2.08,0.95,1.56-0.35,3.38,1.82c1.82,2.16,2.68,2.68,3.72,3.81
				c1.04,1.13,2.51,2.16,3.98,2.68c1.47,0.52,2.16,0.43,1.82,1.39c-0.35,0.95-0.69,0.78-1.13,2.42c-0.43,1.65-0.52,1.04-1.39,4.59
				c-0.87,3.55-1.21,3.81-2.08,6.49c-0.87,2.68-0.61,2.34-1.3,4.85c-0.69,2.51,0,1.73-1.3,4.24c-1.3,2.51-1.73,1.91-2.08,4.16
				c-0.35,2.25-2.77,7.53-3.29,8.75c-0.52,1.21-0.17,0.95-1.04,4.07c-0.87,3.12-1.04,4-1.13,4.55s-0.09,1.25-0.09,1.25
				s-3.98-0.59-5.8-1.25s-1.82-0.66-1.82-0.66s-0.26-1.39,0.61-2.25c0.87-0.87,1.56-3.98,1.56-4.85c0-0.87,0.95-2.86,0.61-5.11
				c-0.35-2.25,0.09-4.33,0.35-5.97c0.26-1.65,0.35-8.05,0.52-10.13c0.17-2.08,0.95-3.9,0.95-5.89c0-1.99,0.09-4.68,0.26-6.58
				c0.17-1.91,0.52-3.9,0.52-6.15C208.84,204.38,209.1,198.32,209.1,198.32z"/>
		</g>
		<g>
			<path class="st3" d="M227.37,210.26c0,0,0.26-0.87,2.94-0.52c2.68,0.35,4.85-0.43,5.72-0.52c0.87-0.09,8.52-1.13,9.64-1.13
				s-3.71,4.07-4.15,5.11c-0.43,1.04-6.31,9.53-7.18,10.82c-0.87,1.3-4.33,6.75-5.46,9.35c-1.13,2.6-6.32,12.12-7.01,14.63
				c-0.69,2.51-2.93,5.3-3.19,6.2s-1.97,3.85-1.97,3.85s-3.29-2.08-3.81-2.6c-0.52-0.52-1.21-1.73-0.78-2.34
				c0.43-0.61,1.91-3.55,2.16-4.76c0.26-1.21,1.13-3.46,1.56-4.5c0.43-1.04,2.16-5.8,2.77-7.27c0.61-1.47,2.34-5.37,2.51-6.06
				c0.17-0.69,0.95-3.9,1.47-5.72s0.61-2.77,1.47-4.59s1.82-4.76,2.68-6.84C227.63,211.3,227.37,210.26,227.37,210.26z"/>
		</g>
		<g>
			<path class="st4" d="M249.62,208.79c0,0-1.65,1.39-2.77,3.81c-1.13,2.42-2.4,2.68-3.54,4.94c-1.14,2.25-2.7,5.61-3.91,6.92
				c-1.21,1.31-5.28,6.68-5.72,8.63c-0.43,1.95-0.35,1.52-1.91,3.85s-1.04,1.73-1.73,3.64c-0.69,1.91-2.2,1.73-2.4,3.03
				c-0.2,1.3-2.54,5.11-2.88,5.97c-0.35,0.87-0.52,1.13-1.65,3.81c-1.13,2.68-3.38,3.98-3.55,4.24c-0.17,0.26-0.35,1.47-0.35,1.47
				s2.68,1.99,3.72,2.77c1.04,0.78,1.99,0.61,3.03-0.61c1.04-1.21,1.12-2.34,2.08-3.2c0.95-0.87,2.08-2.93,3.2-3.85
				c1.13-0.92,3.9-3.77,4.76-5.33c0.87-1.56,2.94-3.55,4.33-5.37c1.39-1.82,2.42-3.03,4.16-5.02s1.91-2.51,3.55-4.5
				s3.55-4.16,4.76-5.37c1.21-1.21,3.12-2.88,3.38-4.17c0.26-1.29,0.26-2.85-1.39-5.79s-3.46-4.16-3.72-5.8
				C250.84,211.22,249.62,208.79,249.62,208.79z"/>
		</g>
		<g>
			<path class="st4" d="M274.74,229.83c0,0-0.61-0.43-1.99-0.95c-1.39-0.52-3.29-1.51-5.02-1.58c-1.73-0.07-3.12-0.24-4.94-0.41
				c-1.82-0.17-5.63-1.21-5.63-1.21s-1.99,1.56-2.77,3.64c-0.78,2.08-4.42,5.72-5.37,6.67c-0.95,0.95-6.06,6.49-6.75,8.05
				c-0.69,1.56-4.85,4.94-5.2,5.97c-0.35,1.04-2.08,2.52-3.12,4.21c-1.04,1.68-3.64,4.97-4.24,5.32c-0.61,0.35-3.72,1.98-3.72,2.81
				c0,0.83,3.03,3.68,3.03,3.68s0.78,0.95,1.47-0.61c0.69-1.56,1.13-2.43,2.34-3.08c1.21-0.65,5.89-4.11,6.41-4.72
				c0.52-0.61,2.19-1.98,4.08-3.41c1.89-1.44,2.15-2.13,3.97-3.86s6.23-4.07,7.27-4.94c1.04-0.87,3.9-3.55,5.02-4.76
				c1.13-1.21,4.59-3.55,5.89-4.5c1.3-0.95,4.42-3.72,5.54-4.42C272.14,231.05,274.74,229.83,274.74,229.83z"/>
		</g>
		<g>
			<path class="st5" d="M278.11,233.08c0,0-3.12,2.81-3.98,3.42c-0.87,0.61-1.13,0.35-3.2,2.25c-2.08,1.91-2.08,1.04-4.59,3.81
				c-2.51,2.77-2.86,3.64-6.06,5.72c-3.2,2.08-5.37,4.52-7.1,5.94s-5.37,4.11-6.67,5.15c-1.3,1.04-1.97,1.3-3.19,2.34
				c-1.23,1.04-2.44,2.25-3.82,3.29c-1.39,1.04-3.38,1.99-4.5,2.51c-1.13,0.52-2.51,0.69-2.94,1.56c-0.43,0.87,0.35,1.56,1.47,3.55
				s1.56,2.08,1.56,2.08s0.78-0.26,3.38-1.04c2.6-0.78,2.42-0.43,4.5-1.82c2.08-1.39,2.86-1.99,4.07-2.42s3.9-1.73,5.11-2.16
				c1.21-0.43,3.55-1.04,5.54-1.99c1.99-0.95,1.99-0.61,5.02-2.16c3.03-1.56,3.2-1.3,6.06-2.77c2.86-1.47,7.79-3.81,8.92-4.85
				c1.13-1.04,2.51-1.3,2.86-2.6c0.35-1.3-0.09-4.59-0.43-9.01c-0.35-4.42,0-5.37-0.61-6.93
				C278.89,235.38,278.11,233.08,278.11,233.08z"/>
		</g>
		<g>
			<path class="st5" d="M280.67,256.51c0,0-1.43,0.95-2.73,1.56s-1.47,1.13-3.2,1.73c-1.73,0.61-0.95,0.17-3.12,1.39
				c-2.16,1.21-1.82,1.39-4.33,1.99s-3.2,0.87-4.59,2.16c-1.39,1.3-2.94,1.73-4.76,2.25s-1.82,0.43-3.98,1.56
				c-2.16,1.13-1.47,0.52-4.85,2.16c-3.38,1.65-2.6,1.56-5.37,2.68s-4.72,1.47-5.95,2.08c-1.23,0.61-2.1,0.69-0.8,2.77
				c1.3,2.08,1.56,2.94,1.73,3.72c0.17,0.78,0.09,0.61,1.65,0c1.56-0.61,1.82-1.21,3.72-2.08c1.91-0.87,4.07-1.91,7.27-1.82
				c3.2,0.09,3.81-0.26,6.67-1.13c2.86-0.87,2.34-1.04,5.46-1.56s3.9-1.47,7.45-2.42c3.55-0.95,5.2-0.35,8.66-1.73
				c3.46-1.39,5.63-1.56,7.88-2.42s6.41-1.91,6.93-1.99c0.52-0.09,1.65,0.17,1.65,0.17s-0.43-1.39-2.08-2.68s-4.94-4.16-6.15-4.94
				c-1.21-0.78-4.68-3.2-5.2-3.46C282.1,256.25,282.17,255.58,280.67,256.51z"/>
		</g>
		<g>
			<path class="st3" d="M297.25,272.44c0,0-0.43,0.35-4.16,0.87c-3.72,0.52-1.82,0.17-5.37,1.39c-3.55,1.21-1.39,0.87-4.85,1.73
				s-4.5,2.08-7.71,2.68c-3.2,0.61-5.28,0.87-6.41,1.21s-4.42,2.17-6.67,2.77c-2.25,0.6-3.55,0.6-6.49,1.21s-3.9,0.95-6.49,1.21
				c-2.6,0.26-4.13,0.26-5.79,0.43s-3.22,0.43-3.22,0.43s1.04,5.02,0.95,6.23c0,0,1.21-0.61,2.77-0.61s5.2-0.26,8.75-0.61
				c3.55-0.35,2.34,0.09,6.41-0.43c4.07-0.52,3.12-0.26,7.79-0.52c4.68-0.26,4.59-0.09,7.19-0.26s4.24,0.09,7.1-0.35
				c2.86-0.43,9.44-0.61,9.44-0.61s1.65-4.33,1.99-5.46s0.87-1.91,1.56-3.2c0.69-1.3,0.61-1.47,1.65-3.38
				C296.73,275.3,297.95,272.2,297.25,272.44z"/>
		</g>
		<g>
			<path class="st3" d="M291.02,290.97c0,0,0.87,0.95,2.25,2.68c1.39,1.73,1.47,3.38,2.77,4.68c1.3,1.3,2.94,4.16,3.81,5.2
				c0.87,1.04,1.21,1.65,1.21,1.65s-1.58-0.35-3.6-0.95c-2.02-0.61-3.67-0.35-6.44-0.78c-2.77-0.43-3.38-0.78-7.1-1.04
				c-3.72-0.26-7.53-0.17-10.22-0.69c-2.68-0.52-2.51-0.87-6.06-1.04c-3.55-0.17-6.93-0.69-9.27-0.87
				c-2.34-0.17-7.88-1.73-10.3-1.73c-2.42,0-7.1,0-7.1,0s0.43-2.77,0-3.72s3.46-0.95,4.42-0.69s2.68,0.17,5.72,0.09
				c3.03-0.09,6.84-1.3,10.39-1.13c3.55,0.17,8.4,0.26,10.82,0c2.42-0.26,5.8-0.26,8.35-0.43s8.53-1.21,8.53-1.21H291.02z"/>
		</g>
		<g>
			<path class="st6" d="M240.93,302.4c0,0,4.36,1.47,7.31,1.82c2.94,0.35,2.68,0.09,5.8,0.52c3.12,0.43,2.94,1.13,8.05,1.13
				c5.11,0,6.46-0.17,8.9,0.35c2.44,0.52,3.22,0.35,6.16,0.69s3.03,0.35,6.23,0.61c3.2,0.26,5.63,0.87,7.62,1.21
				s2.77,1.04,4.76,1.04s3.12,0,3.12,0s-0.09,2.25-1.82,3.29c-1.73,1.04-1.04,0.61-2.86,2.6s-2.77,2.6-3.12,3.55
				s-1.82,2.68-2.25,3.64c-0.43,0.95-1.04,1.82-1.04,1.82s-1.99-1.56-3.55-1.91c-1.56-0.35-3.46-0.69-5.11-1.65
				c-1.65-0.95-3.9-0.95-7.45-2.51c-3.55-1.56-4.42-1.56-7.45-2.25c-3.03-0.69-5.54-2.42-8.31-2.81c-2.77-0.39-2.34,0.22-5.02-1
				c-2.68-1.21-1.56-0.95-5.63-1.91c-4.07-0.95-5.2-1.3-5.2-1.3S240.81,303.44,240.93,302.4z"/>
		</g>
		<g>
			<path class="st6" d="M239.32,311.15c0,0-0.35,1.47-0.43,2.38c-0.09,0.91-0.69,0.39,1.21,1.34c1.91,0.95,1.04,0.69,4.59,2.25
				c3.55,1.56,3.64,1.73,6.67,2.94c3.03,1.21,6.23,2.94,8.83,3.72s2.77,0.52,5.89,2.08c3.12,1.56,7.45,3.64,9.61,5.2
				c2.16,1.56,2.77,2.94,4.68,4.42s5.02,3.03,6.06,3.72s3.46,2.16,3.46,2.16s-0.09-2.77-0.78-5.8c-0.69-3.03-0.35-3.46-0.52-5.72
				s-0.87-4.24-1.47-4.68c-0.61-0.43-2.51-0.43-3.81-1.04s-2.16-0.87-3.81-1.82s-2.42-1.13-3.38-1.47s-2.42-0.26-4.16-0.95
				c-1.73-0.69-2.08-1.13-4.5-1.82s-3.12-0.61-5.8-1.39c-2.68-0.78-4.59-1.56-6.67-1.99c-2.08-0.43-2.94-0.35-4.85-1.17
				s-4.42-1.95-7.27-2.38c-2.86-0.43-3.29-1.04-3.29-1.04L239.32,311.15z"/>
		</g>
		<g>
			<path class="st2" d="M236.9,317.99c0,0,0.26,0.87,1.39,1.39c1.13,0.52,1.21,1.82,4.5,2.77s5.8,2.77,7.45,3.59s2.6,1.95,4.59,2.9
				c1.99,0.95,7.1,1.91,9.01,2.94c1.91,1.04,3.9,3.64,5.67,4.42c1.78,0.78,2.81,1.21,4.89,2.51c2.08,1.3,3.81,1.39,5.8,2.86
				s4.59,3.46,5.63,4.24s1.91,1.3,1.91,1.3s-2.68,0.52-3.98,0.43c-1.3-0.09-2.42,0.61-3.9,1.56s-3.72,1.73-4.16,2.16
				c-0.43,0.43-1.65,1.73-1.65,1.73s-0.87,0.52-2.51-1.3s-2.25-2.51-5.28-4.68c-3.03-2.16-5.2-2.6-6.84-4.07s-3.03-2.25-4.76-3.98
				c-1.73-1.73-3.64-2.86-4.76-4.07c-1.13-1.21-2.08-1.73-3.64-2.94c-1.56-1.21-2.25-1.73-4.33-2.94c-2.08-1.21-2.34-1.56-4.42-2.6
				c-2.08-1.04-4.07-2.08-4.07-2.08L236.9,317.99z"/>
		</g>
		<g>
			<path class="st2" d="M228.76,329.24c0,0,0.78,0.43,2.68,2.08s3.03,2.77,4.59,4.85c1.56,2.08,3.14,2.34,4.9,4.59
				c1.77,2.25,2.37,2.51,5.32,5.2c2.94,2.68,3.81,4.29,6.67,6.91c2.86,2.62,2.25,3.14,3.98,5.56c1.73,2.42,2.34,5.2,3.68,7.1
				c1.34,1.91,3,3.55,3.73,5.02s1.25,2.6,1.25,2.6s2.77-5.37,3.12-7.62c0.35-2.25,0.52-2.68,1.73-5.02
				c1.21-2.34,2.25-6.06,2.25-6.06s-1.73-2.77-5.54-5.11c-3.81-2.34-4.42-3.03-6.54-4.85s-6.02-3.81-7.32-5.37
				c-1.3-1.56-3.9-3.81-5.63-4.94c-1.73-1.13-4.42-2.86-5.54-3.55c-1.13-0.69-5.8-4.24-7.36-4.89s-2.16-0.65-2.16-0.65
				L228.76,329.24z"/>
		</g>
		<g>
			<path class="st4" d="M225.64,331.67c0,0,0.35,1.02,2.42,3.76c2.08,2.74,2.6,3.95,4.42,5.59c1.82,1.65,2.34,2.08,3.64,3.12
				s1.99,1.21,3.03,2.77c1.04,1.56,3.12,2.42,4.24,3.9c1.13,1.47,4.24,4.68,5.89,6.58c1.65,1.91,2.68,3.64,3.29,4.85
				c0.61,1.21,2.08,2.77,3.29,4.68s2.77,5.02,3.81,6.23c1.04,1.21,2.86,2.77,2.86,2.77s-2.86-0.26-4.76,0
				c-1.91,0.26,0.15-0.27-5.48-0.19c-5.63,0.09-4.65,1.14-6.47,1.4c-1.82,0.26-2.86,0-2.86,0s0.26-0.69-0.87-3.46
				s-2.4-2.94-3.36-5.63c-0.97-2.68-0.71-3.2-2.87-6.75c-2.16-3.55-2.6-6.44-4.24-8.42c-1.65-1.97-2.68-4.4-3.9-6.48
				c-1.21-2.08-1.73-3.72-2.94-5.63c-1.21-1.91-3.9-4.94-3.9-4.94S220.88,334.61,225.64,331.67z"/>
		</g>
		<g>
			<path class="st4" d="M219.4,335.43c0,0-0.69,0.92,0.78,2.56c1.47,1.65,2.08,2.34,3.29,4.5c1.21,2.16,2.25,4.16,3.46,6.62
				s2.94,4.2,5.02,8.62c2.08,4.42,2.25,4.94,3.12,6.67c0.87,1.73,1.65,3.72,2.25,4.68c0.61,0.95,1.73,3.12,2.6,4.85
				c0.87,1.73,1.78,3.72,1.78,3.72s0.3,1.65-1.26,3.03c-1.56,1.39-2.16,2.34-3.72,4.42s-3.46,3.81-4.94,5.28s-2.42,2.25-2.42,2.25
				s-1.82-8.05-1.82-11s-0.61-4.24-1.56-6.75c-0.95-2.51-1.3-7.76-2.6-10.85c-1.3-3.09-1.04-2.49-2.51-6.73s-0.52-2.94-2.51-8.18
				c-1.99-5.24-1.3-5.76-2.68-7.75c-1.39-1.99-1.99-2.68-1.99-2.68s1.99-1.39,3.12-1.82C217.93,336.43,219.4,335.43,219.4,335.43z"
				/>
		</g>
		<g>
			<path class="st5" d="M211.35,339.37c0,0-0.52,0.69-0.52,3.38c0,2.68-0.61,1.47,0.52,4.76c1.13,3.29,1.3,2.51,2.34,6.15
				c1.04,3.64,0.26,3.55,1.99,6.58c1.73,3.03,1.47,2.34,2.42,5.89c0.95,3.55,1.47,7.36,1.91,9.27c0.43,1.91,1.65,6.15,2.08,8.83
				c0.43,2.68,1.56,5.28,2.08,7.79s0.78,3.98,0.78,3.98s0.17-0.17-2.94-2.16s-4.07-3.03-8.31-4.07c-4.24-1.04-5.46-2.08-5.46-2.08
				s-0.61-6.7-0.87-10.45s0-4.53-0.43-6.44c-0.43-1.91-1.39-5.02-1.56-7.71c-0.17-2.68,0.43-3.03-0.17-6.23
				c-0.61-3.2-0.78-5.28-1.13-6.84c-0.35-1.56-0.95-5.02-0.95-5.89s-0.35-2.77-0.35-2.77S210.05,339.55,211.35,339.37z"/>
		</g>
		<g>
			<path class="st5" d="M195.5,341.37c0,0,0.87-0.26,1.99,0c1.13,0.26,3.29,0.03,3.64-0.12s0.52-0.49,0.95,1.5
				c0.43,1.99,0.35,2.42,0.69,4.68s0.78,1.82,0.78,4.24s-0.17,3.03,0.17,5.2c0.35,2.16,0.87,5.28,0.87,7.53
				c0,2.25,0.43,2.51,0.78,4.24c0.35,1.73,0.43,2.86,0.61,6.06c0.17,3.2,0.61,9.18,0.61,10.3s0.95,2.51,0,4.33
				c-0.95,1.82-2.69,1.73-5.33,3.29c-2.64,1.56-3.5,2.6-6.45,3.72c-2.94,1.13-5.8,2.68-5.8,2.68s-1.47-1.13-0.43-4.59
				s1.65-4.07,1.65-7.1c0-3.03-0.09-3.12,0.78-5.8c0.87-2.68,1.56-4.68,1.82-6.41c0.26-1.73,0.95-5.46,1.3-8.31
				c0.35-2.86-0.35-7.45-0.35-9.53c0-2.08,1.82-8.4,2.08-11.78C196.11,342.15,195.5,341.37,195.5,341.37z"/>
		</g>
		<g>
			<path class="st3" d="M191.22,343c-0.14,0.25-0.27,0.61-0.39,1.22c-0.43,2.16-1.13,3.9-0.96,6.23c0.17,2.34,0.96,2.08,0.17,5.89
				c-0.78,3.81-1.3,4.71-1.56,7.68c-0.26,2.97-0.69,5.4-1.12,8.17c-0.43,2.77-0.17,5.54-0.95,8.92c-0.78,3.38-0.61,3.03-1.04,5.8
				c-0.43,2.77-0.43,4.5-0.43,5.72c0,1.21,0.43,4.24,0.43,4.24s-1.38-1.65-3.72-3.21c-2.34-1.56-2.42-1.04-4.16-2.69
				c-1.73-1.64-3.37-3.12-4.33-3.9c-0.95-0.78-1.82-1.21-1.82-2.59c0-1.39,0.09-1.56,1.04-5.2c0.95-3.64,0.69-4.07,1.48-6.15
				c0.78-2.08,1.38-5.02,1.38-5.02s0.61-4.68,1.04-6.32c0.43-1.64,2.25-7.02,2.51-7.88c0.26-0.86,1.56-4.59,2.25-6.84
				c0.69-2.25,1.12-6.27,2.34-6.49c0,0,1.3-0.52,3.55,0c1.93,0.45,3.24,0.51,4.22,0.68c0.04,0.06,0.08,0.13,0.13,0.25
				c0.15,0.37,0.08,0.53,0.1,0.74C191.33,342.47,191.26,342.79,191.22,343z"/>
		</g>
		<g>
			<path class="st3" d="M153.16,388.3c0,0-0.09-0.69,2.16-0.69c2.25,0,2.68,0.26,4.07,0c1.39-0.26,2.51,0.78,4.16,0
				c1.65-0.78,3.29-0.78,4.76-1.04c1.47-0.26,1.99-0.69,1.99-2.34s1.39-3.98,1.39-5.02s0.78-4.42,1.13-5.72
				c0.35-1.3,0.87-2.77,1.13-4.5c0.26-1.73,0-3.38,0.69-5.37c0.69-1.99,2.16-6.32,2.16-6.32s0.95-2.98,1.47-4.43
				c0.52-1.45,0.52-2.75,1.39-5.09s1.47-4.24,1.73-5.72s1.13-1.04,0-1.99s-1.56-0.87-2.94-0.69s-1.73,1.04-1.99,1.99
				s-1.21,3.55-3.38,7.1c-2.16,3.55-2.25,5.97-2.94,7.27c-0.69,1.3-2.94,4.68-4.07,7.27s-2.77,6.58-3.55,8.05
				c-0.78,1.47-0.52,1.65-1.56,4.24s-1.47,3.12-2.51,6.06C157.4,384.32,153.16,388.3,153.16,388.3z"/>
		</g>
		<g>
			<path class="st6" d="M148.57,387.26c0,0,1.47-2.6,1.73-3.81c0.26-1.21,2.77-3.03,2.86-5.02s1.21-3.64,1.82-5.28
				s2.94-5.89,3.2-6.93c0.26-1.04,2.68-4.85,3.55-6.67c0.87-1.82,2.08-3.41,3.55-6.69c1.47-3.27,2.25-5.96,3.03-7.52
				c0.78-1.56,2.51-4.29,3.55-6.08c1.04-1.8,1.56-2.75,1.56-2.75s-4.89-3.81-5.87-3.81s-2.36,1.28-3.31,2.72s-2.86,2.78-3.72,3.84
				c-0.87,1.06-1.56,2.19-2.25,3.4c-0.69,1.21-2.16,3.55-3.64,5.28c-1.47,1.73-2.34,2.77-3.29,4.42c-0.95,1.65-1.99,1.82-3.29,4.24
				c0,0-2.08,2.77-3.46,4.85c-1.39,2.08-1.47,2.42-2.25,3.81c-0.78,1.39-3.29,4.82-3.29,4.82s4.16,7.39,4.94,9.81
				c0.78,2.42,4.07,7.36,4.07,7.36H148.57z"/>
		</g>
		<g>
			<path class="st6" d="M119.65,364.03c0,0,0,0.03,3.12,1.07c3.12,1.04,4.07,0.87,6.23,1.82c2.16,0.95,2.86,1.41,5.2,1.7
				c2.34,0.29,3.81-0.03,4.5,0c0.69,0.03,3.98-4.73,4.42-6.55s5.37-7.71,6.15-8.83c0.78-1.13,1.57-3.35,3.9-4.85
				c2.33-1.5,2.51-3.98,3.07-4.59s3.33-5.72,4.37-6.49c1.04-0.78,4.33-4.16,4.85-4.59c0.52-0.43,2.34-0.87,0-1.99
				c-2.34-1.13-4.42-2.77-4.42-2.77s-0.61,0.95-1.39,2.08s-2.25,2.42-2.68,3.12c-0.43,0.69-5.63,4.24-6.58,5.11
				s-3.98,3.03-5.46,4.68s-1.82,2.16-2.77,2.86c-0.95,0.69-1.3,0.95-4.85,3.46c-3.55,2.51-3.72,2.34-4.76,3.55
				c-1.04,1.21-2.51,1.65-4.5,3.72c-1.99,2.08-1.47,0.87-4.07,3.46C121.38,362.58,119.65,364.03,119.65,364.03z"/>
		</g>
		<g>
			<path class="st4" d="M115.67,361.54c0,0,2.16-2.08,3.12-3.03c0.95-0.95,2.42-2.68,3.55-3.38c1.13-0.69,2.16-1.99,3.12-2.51
				c0.95-0.52,2.16-1.65,4.5-3.55c2.34-1.91,2.16-1.56,4.76-3.55c2.6-1.99,2.68-1.73,4.33-3.38c1.65-1.65,2.46-2.51,4.09-3.64
				s7.77-6.58,10.02-8.49c2.25-1.91,3.46-2.34,4.85-3.03c1.39-0.69,0.52-1.99,0-2.86s-4.16-4.5-4.07-4.85s-3.2,0.69-3.81,1.56
				c-0.61,0.87-1.04,0.87-3.12,2.08c-2.08,1.21-4.24,2.34-7.19,3.81s-3.38,1.82-6.15,3.12s-1.82,0.95-5.37,2.86
				c-3.55,1.91-1.47,1.04-5.63,3.2c-4.16,2.16-3.12,1.69-5.8,3.35c-2.68,1.67-4.07,1.15-3.9,2.62s0.17,0.61,0.35,3.64
				c0.17,3.03,0.69,4.24,0.69,6.84s0,3.2,0.52,5.28C115.06,359.72,115.67,361.54,115.67,361.54z"/>
		</g>
		<g>
			<path class="st4" d="M150.3,310.8c0,0,0.22,0.68,0.43,1.68c0.54,2.47,1.21,2.83,1.65,3.61c0.43,0.78,0.78,1.39,0.78,1.39
				s0.26,0.17-0.87,0.87c-1.13,0.69-2.51,1.21-3.38,1.65c-0.87,0.43-1.65,0.52-2.42,1.13c-0.78,0.61-2.77,1.99-4.16,2.51
				s-0.78,0.17-3.29,1.73c-2.51,1.56-7.1,3.29-9.27,4.59c-2.16,1.3,0.26,0.61-3.38,2.34c-3.64,1.73-2.77,1.56-6.41,3.29
				c-3.64,1.73-4.85,2.08-5.97,2.51c-1.13,0.43-2.34,0.52-2.34,0.52s-4.07-3.9-6.67-5.02c-2.6-1.13-5.28-2.68-6.49-3.38
				c-1.21-0.69-1.56-1.65-1.56-1.65s3.64-0.17,5.97-1.13s5.11-2.16,9.18-3.55c4.07-1.39,5.02-2.25,7.53-2.94
				c2.51-0.69,3.98-0.78,7.01-2.08c3.03-1.3,3.64-1.56,6.06-2.42c2.42-0.87,2.42-0.69,5.46-1.39c3.03-0.69,2.68,0.17,6.06-1.39
				C147.62,312.1,150.3,310.8,150.3,310.8z"/>
		</g>
		<g>
			<path class="st2" d="M94.1,325c0,0,2.94-1.56,5.97-2.94c3.03-1.39,2.94-1.21,5.63-2.16c2.68-0.95,4.13-0.52,7.26-2.16
				c3.13-1.65,6.08-2.42,8.85-3.12c2.77-0.69,2.34-0.35,6.32-1.73c3.98-1.39,6.75-1.04,9.09-1.82c2.34-0.78,2.94-1.13,6.93-1.73
				c3.98-0.61,5.46-0.78,5.46-0.78l-0.87-5.11l-0.95-4.24c0,0,0.69-0.17-6.06,0.43c-6.75,0.61-12.47,1.56-12.47,1.56
				s-7.62,1.56-11.78,1.39s-6.32,0.69-9.7,1.39c-3.38,0.69-6.84,1.04-6.84,1.04s-0.61,1.56-0.87,2.68
				c-0.26,1.13-3.29,5.97-3.12,7.36c0.17,1.39,0,1.91-1.13,4.59C94.71,322.32,94.1,325,94.1,325z"/>
		</g>
		<g>
			<path class="st2" d="M91.07,286.38c0,0,1.3,0.69,4.59,0.69c3.29,0,3.03,0.43,5.46,0.52c2.42,0.09,5.02,0.78,6.84,0.95
				c1.82,0.17,3.98,0.61,6.58,0.69c2.6,0.09,3.64-0.09,6.41,0c2.77,0.09,8.31,0.87,10.48,1.13c2.16,0.26,6.67,0.78,7.62,1.04
				c0.95,0.26,4.5,0.52,5.97,0.52s3.9-1.04,3.98,0c0.09,1.04,0.69,1.47,0,3.64c-0.69,2.16,0.61,1.3-0.69,2.16
				c-1.3,0.87-2.34,0.43-4.24,0.61c-1.91,0.17-8.4,1.08-10.48,0.84s-4.76,0.8-7.71,0.98s-7.71,0.69-10.22,1.13
				c-2.51,0.43-5.8,0.87-7.36,1.21s-3.64,0.87-5.28,0.87s-1.99,1.3-3.29-0.78c-1.3-2.08-1.99-2.94-3.72-5.8s-0.95-1.82-2.68-5.02
				C91.59,288.54,91.07,286.38,91.07,286.38z"/>
		</g>
		<g>
			<path class="st3" d="M102.24,252.96c0,0,2.68,1.99,3.64,2.34s2.6,1.65,5.11,3.03c2.51,1.39,4.85,2.16,7.45,3.03
				c2.6,0.87,2.08,0.61,5.97,1.99c3.9,1.39,6.75,3.64,8.05,4.24s4.33,1.73,6.32,2.51c1.99,0.78,3.46,1.21,5.63,1.82
				c2.16,0.61,4.85,2.25,6.58,2.86s3.46,0.87,3.55,1.21s-1.42,1.56-1.36,2.86s-0.8,2.42-0.8,2.42s-0.61,0.43-2.16-0.52
				s-4.59-1.73-6.93-2.34c-2.34-0.61-6.32-1.73-6.32-1.73s-6.67-1.82-9.7-2.34s-11.08-3.2-14.11-3.38s-8.14-1.21-8.57-1.99
				c-0.43-0.78-1.82-7.19-1.91-9.87C102.59,256.42,102.24,252.96,102.24,252.96z"/>
		</g>
		<g>
			<path class="st3" d="M93.06,282.4c0,0,0.87-0.43,2.08-1.82c1.21-1.39,2.51-1.91,3.46-2.68c0.95-0.78,2.42-3.03,3.64-4.42
				c1.21-1.39,1.39-2.77,2.94-2.77s15.15,3.2,15.85,3.64c0.69,0.43,9.53,1.99,9.78,2.21c0.26,0.22,3.03,0.3,6.15,1.43
				c3.12,1.13,4.59,1.04,7.01,2.25c2.42,1.21,7.79,2.16,7.79,2.16s-1.82,5.97-2.16,7.01c-0.35,1.04-3.38,0.95-6.15,0
				c-2.77-0.95-8.23-1.04-13.6-2.08c-5.37-1.04-11.17-2.08-15.41-1.99c-4.24,0.09-5.72-0.17-10.3-0.69s-10.22-0.69-10.65-1.47
				C93.06,282.4,93.06,282.4,93.06,282.4z"/>
		</g>
		<g>
			<path class="st5" d="M123.55,237.46c0,0,0.87-2.77,1.39-5.46c0.52-2.68-0.35-2.51,0.78-5.8c1.13-3.29,2.08-5.89,2.08-5.89
				s3.38,4.9,5.2,7c1.82,2.1,2.77,2.7,4.07,4.95s5.02,5.11,6.41,6.49c1.39,1.39,2.51,3.64,5.63,6.84s5.72,4.2,8.05,6.91
				c2.34,2.7,4.16,4.87,5.37,6.34s2.6,3.46,2.86,3.5c0.26,0.05,0.35,0.57-0.87,1.87s-1.82,1.7-2.68,2.11c-0.87,0.4-0.52,1.76-2.34,0
				s-3.9-2.8-5.46-4.7c-1.56-1.91-2.08-3.72-5.63-5.63c-3.55-1.91-3.9-1.3-7.71-5.02c-3.81-3.72-6.41-3.09-8.23-4.96
				c-1.82-1.88-2.94-2.57-4.07-3.87c-1.13-1.3-3.29-2.77-4.07-3.72S123.55,237.46,123.55,237.46z"/>
		</g>
		<g>
			<path class="st5" d="M104.23,249.32c0,0,1.82-1.65,2.86-1.99c1.04-0.35,1.82-0.87,3.2-1.73c1.39-0.87,0.35-0.04,3.64-1.84
				c3.29-1.8,5.54-3.27,7.01-4.13c1.47-0.87,2.6,0.09,3.2,1.13c0.61,1.04,4.07,3.46,5.89,4.76c1.82,1.3,3.03,3.29,5.72,4.42
				c2.68,1.13,4.07,2.29,6.15,3.96c2.08,1.67,5.02,4.26,7.45,5.39c2.42,1.13,3.73,4.33,5.2,5.28c1.47,0.95,5.71,3.72,5.71,3.72
				s-2.51,2.34-3.12,3.72c-0.61,1.39-1.04,1.73-2.16,1.3s-3.72-1.3-6.15-2.6s-1.73,0.17-6.49-2.77s-5.28-2.68-9.61-3.9
				c-4.33-1.21-8.49-4.42-10.3-5.46c-1.82-1.04-2.68-1.3-6.75-2.77c-4.07-1.47-6.67-1.94-8.83-3.31S103.15,250.22,104.23,249.32z"/>
		</g>
		<g>
			<path class="st6" d="M148.66,216.24c0,0,2.25-1.82,3.55-3.12c1.3-1.3,1.05-2.34,2.34-3.98c1.3-1.65,0.08-0.26,2.51-3.29
				c2.42-3.03,2.16-4.5,3.2-3.9c1.04,0.61,1.99,1.73,2.42,3.55c0.43,1.82,0.35,1.39,1.47,5.02c1.13,3.64,0.78,5.02,2.34,8.14
				s3.98,8.92,4.59,10.82c0.61,1.91,1.39,5.02,2.08,7.01c0.69,1.99,2.34,6.41,3.55,8.92c1.21,2.51,1.99,5.68,2.77,7.08
				c0.78,1.4,2.42,0.03,0.87,1.71c-1.56,1.68-2.68,2.3-3.72,2.16c-1.04-0.14,0.17,2.04-1.99,0c-2.16-2.04-1.56-3.43-4.16-6.46
				c-2.6-3.03-3.9-3.72-6.84-9.09c-2.94-5.37-4.59-7.88-5.89-9.61s-3.2-5.3-4.24-6.76C152.47,222.99,148.66,216.24,148.66,216.24z"
				/>
		</g>
		<g>
			<path class="st6" d="M132.46,218.06c0,0-1.13-0.61,1.3-0.61c2.42,0,3.72,0.43,4.94,0c1.21-0.43,2.86-0.61,5.11-0.69
				c2.25-0.09,3.55,0,3.55,0s0.95,1.3,1.99,3.03c1.04,1.73,1.39,4.33,2.51,5.89s2.34,3.86,2.34,3.86s1.99,3.76,2.94,4.97
				c0.95,1.21,5.11,7.66,6.15,9.24c1.04,1.58,2.6,4.87,4.33,6.34s4.68,5.81,5.02,5.93c0.35,0.13,1.99,0.73,0.43,2.03
				s-1.91,1.73-3.29,2.08c-1.39,0.35-0.95-0.09-2.08-1.65c-1.13-1.56-2.34-4.5-7.97-9.87c-5.63-5.37-4.54-6.15-6.77-8.14
				c-2.23-1.99-2.49-0.52-4.92-4.16c-2.42-3.64-5.46-6.93-6.75-8.05c-1.3-1.13-2.42-3.38-4.5-5.2s-3.12-3.12-3.72-4.07
				C132.46,218.06,132.46,218.06,132.46,218.06z"/>
		</g>
		<g>
			<path class="st6" d="M161.97,198.99c0,0,2.6,0.19,4.35,0.32c1.75,0.13,4.03,0.8,6.36,1.08c2.34,0.28,6.43,1.58,8.77,2.23
				c2.34,0.65,6.04,1.56,6.04,1.56s2.21-1.49,2.99-1.75c0.78-0.26,3.57-2.21,4.74-2.79s9.37-4.55,9.37-4.55
				S179.57,192.23,161.97,198.99z"/>
		</g>
		<g>
			<path class="st7" d="M206.72,195.15c0,0,0.97,0.84,3.44,1.95c2.47,1.1,2.21,1.04,5.2,2.92c2.99,1.88,3.77,3.51,5.72,5
				c1.95,1.49,3.77,2.58,4.61,3.07c0.84,0.5,1.43,1.08,5.13,0.69c3.7-0.39,4.26-0.78,6.97-0.97c2.71-0.19,4.4-0.45,6.54-0.71
				s3.7-0.84,3.7-0.84S230.23,196.71,206.72,195.15z"/>
		</g>
		<g>
			<path class="st6" d="M250.36,207.82c0,0,1.69,2.92,2.86,4.81c1.17,1.88,0.71,1.36,2.21,4.68c1.49,3.31,2.14,6.1,2.21,6.3
				c0.06,0.19,5.26,1.43,8.25,2.34s5.85,0.91,10.46,3.31l1.43,0.39C277.77,229.64,268.87,217.11,250.36,207.82z"/>
		</g>
		<g>
			<path class="st7" d="M278.55,230.74c0,0-0.06,0.45,0.71,2.34c0.78,1.88,0.93,1.75,1.4,3.7c0.48,1.95,0.22,2.14,0.74,5.13
				c0.52,2.99,0.52,3.7,0.52,5.52s0,5.13,0,6.17c0,1.04-0.97,0.7,1.95,2.43c2.92,1.73,5.26,3.87,7.08,5.37
				c1.82,1.49,4.07,3.7,5.09,4.48c1.02,0.78,1.8,1.43,1.8,1.43S291.92,246.4,278.55,230.74z"/>
		</g>
		<g>
			<path class="st6" d="M299.26,271.46c0,0,0.19,1.3-0.78,2.79c-0.97,1.49-2.34,4.61-2.92,5.97s-2.08,5.52-2.99,7.08
				c-0.91,1.56-1.04,2.08-1.04,2.08s3.1,4.16,4.5,6.17c1.41,2.01,1.71,2.6,2.86,4.29c1.15,1.69,2.9,4.16,3.1,5
				c0.19,0.84,0.45-1.88,0.78-4.03C303.1,298.68,302.49,277.05,299.26,271.46z"/>
		</g>
		<g>
			<path class="st7" d="M291.67,343.55c-0.24,0.38-0.83,0.18-0.79-0.27c0.07-0.8,0.09-1.71-0.05-2.4c-0.32-1.56-0.63-7.72-0.93-9.47
				c-0.3-1.75-0.76-3.57-0.76-5c0-1.43,0.26-3.05,2.92-4.68c0,0,1.62-1.82,2.21-3.25s1.3-1.88,2.4-3.38c1.1-1.49,5.46-7.6,5.46-7.6
				S302.34,326.92,291.67,343.55z"/>
		</g>
		<g>
			<path class="st6" d="M289.13,347.71c0,0-0.97,0.13-2.47,0.71c-1.49,0.58-1.56,0.65-3.38,1.36s-1.82,1.04-4.03,1.75
				c-2.21,0.71-3.77,0.9-4.09,1.32c-0.32,0.43,0.19-0.93-1.1,2.12s-1.04,4.16-2.14,6.43c-1.1,2.27-2.66,4.03-3.25,6.62
				s-1.62,4.87-1.88,5.52c-0.26,0.65-0.39,1.04-0.39,1.04S277.55,366.52,289.13,347.71z"/>
		</g>
		<g>
			<path class="st7" d="M263.74,376.78c0,0-1.65-0.17-3.16,0s-0.91,0.58-3.33,0.46s-3.29-0.02-5.46,0.02
				c-2.16,0.04-2.42,0.04-4.94,0.38c-2.51,0.35-2.77,0.17-3.55,0.43c-0.78,0.26-1.73,2.08-3.03,3.98c-1.3,1.91-2.77,3.64-5.2,6.23
				c-2.42,2.6-3.9,4.07-4.5,4.85c-0.61,0.78-1.3,1.73-1.3,1.73S251.87,387.69,263.74,376.78z"/>
		</g>
		<g>
			<path class="st6" d="M224.95,396.87c0,0-1.13-1.3-3.03-1.99c-1.91-0.69-12.04-4.94-12.82-5.02c-0.78-0.09-0.52,0.87-1.73,1.56
				c-1.21,0.69-3.29,1.65-4.59,2.6s-1.82,1.21-4.5,2.34c-2.68,1.13-1.3,0.95-4.07,2.16c-2.77,1.21-5.28,2.16-5.28,2.16
				S203.13,401.72,224.95,396.87z"/>
		</g>
		<g>
			<path class="st7" d="M187.45,400.78c0,0,0,0.25-1.99-1.74s-2.86-2.08-3.98-3.03c-1.13-0.95-1.3-1.56-2.94-2.6
				c-1.65-1.04-3.12-1.92-5.11-3.56c-1.99-1.64-0.61-1.9-2.68-2.07c-2.08-0.17-2.26-0.35-4.12,0c-1.86,0.35-0.3,0.61-4.54,0.87
				c-4.24,0.26-6.76,0.52-8.92,0.69c-2.16,0.17-2.34,0.87-2.34,0.87S158.76,397.82,187.45,400.78z"/>
		</g>
		<g>
			<path class="st6" d="M148.48,389.25c0,0-7.45-9.96-8.57-12.21c-1.13-2.25-3.64-6.41-3.64-6.41s-7.1-0.78-15.93-4.5l-4.16-1.56
				C116.18,364.57,132.38,381.29,148.48,389.25z"/>
		</g>
		<g>
			<path class="st7" d="M115.02,362.93c0,0,0-2.03-0.74-3.64c-0.74-1.6-0.87-4.63-0.95-5.76c-0.09-1.13-0.78-2.9-1.08-4.81
				c-0.3-1.91-0.17-7.86-0.13-8.35c0.04-0.49-3.16-2.3-4.59-3.52c-1.43-1.21-2.73-1.86-4.2-2.77c-1.47-0.91-3.38-2.25-4.24-2.94
				s-3.12-2.42-4.16-2.6c-1.04-0.17-1.26,0-1.26,0S102.03,352.04,115.02,362.93z"/>
		</g>
		<g>
			<path class="st6" d="M92.74,324.64c0,0,0.84-4.54,1.36-6.16c0.52-1.62,0.97-3.12,1.49-5s0.58-3.25,1.36-5.2s1.36-3.31,1.49-4.09
				c0,0-3.31-5.2-4.35-7.79c-1.04-2.6-2.27-5.46-3.31-7.34c-1.04-1.88-1.23-3.31-1.23-3.31S86.05,300.06,92.74,324.64z"/>
		</g>
		<g>
			<path class="st7" d="M89.86,283.61c0,0,3.55-4.07,4.85-5.02c1.3-0.95,2.99-2.34,3.75-3.2c0.76-0.87,2.92-3.64,3.79-4.33
				s1.63-1.13,1.63-1.13s-1.46-3.12-1.63-5.72c-0.17-2.6-1.04-7.62-1.04-8.66s0-4.07,0-4.07h-0.78
				C100.42,251.48,89.17,277.37,89.86,283.61z"/>
		</g>
		<g>
			<path class="st6" d="M102.24,248.28c0,0,1.13,0.17,4.42-2.25s4.24-2.86,6.15-4.16c1.91-1.3,8.23-3.9,8.83-4.16
				c0.61-0.26,1.21-0.78,1.56-4.63c0.35-3.85,4.07-14.5,4.07-14.5S113.41,228.45,102.24,248.28z"/>
		</g>
		<g>
			<path class="st7" d="M129.17,216.72c0,0-0.12,0.39,2.9,0c3.01-0.39,2.56-0.39,5.22-0.72c2.66-0.32,3.57-0.84,6.62-0.97
				c3.05-0.13,3.77,0.26,4.22,0c0.45-0.26,1.75-2.21,2.92-3.64c1.17-1.43,4.74-5.39,5.07-6.36s5.46-6.04,5.46-6.04
				S144.5,203.35,129.17,216.72z"/>
		</g>
	</g>
	<g>
		<g>
			<path class="st7" d="M195.19,314.47c-6.87,0-14.94-1.81-16.21-7c-0.77-3.15-1.52-7.6-1.67-8.5c-0.26-0.94-0.49-3.22,1.58-6.77
				l0.32-0.55c1.87-3.22,3.63-6.26,9.64-7.48c1.87-0.38,2.6-0.79,3.24-1.15c1.56-0.87,2.66-1.23,6.03-0.72
				c1.17,0.18,2.14,0.26,2.99,0.33c2.88,0.25,4.95,0.42,7.19,3.95c1.67,2.63,1.96,4.87,2.27,7.24c0.16,1.24,0.33,2.53,0.7,4.1
				c1.42,6.03-2.57,13.04-6.84,14.82c-0.77,0.32-1.03,0.51-1.26,0.67c-1.29,0.92-1.85,0.93-7.19,1.05
				C195.72,314.47,195.46,314.47,195.19,314.47z M181.73,297.7l0.18,0.29l-0.1,0.08c0.01,0.05,0.82,5.04,1.62,8.31
				c0.37,1.53,5.02,3.66,12.47,3.5c1.98-0.04,4.03-0.08,4.6-0.18c0.01-0.01,0.02-0.01,0.03-0.02c0.34-0.24,0.91-0.65,2.15-1.17
				c2.2-0.92,5.04-5.76,4.15-9.55c-0.42-1.8-0.62-3.26-0.79-4.56c-0.28-2.18-0.47-3.61-1.6-5.39c-1.02-1.61-1.22-1.62-3.71-1.84
				c-0.87-0.07-1.96-0.17-3.28-0.37c-2.19-0.33-2.42-0.2-3.11,0.19c-0.79,0.45-2,1.12-4.57,1.64c-4,0.82-4.87,2.31-6.6,5.29
				l-0.33,0.56C181.79,296.33,181.72,297.38,181.73,297.7z M181.68,297.61"/>
		</g>
		<g>
			<path class="st5" d="M192.03,305.3c-1.48,0-2.85-0.23-3.71-0.81c-0.82-0.55-1.29-1.41-1.29-2.34c0-1.36,0.58-4.8,0.7-5.48
				l0.04-0.25c-0.16-0.73-0.06-1.37,0.29-1.94c0.73-1.18,2.05-1.39,4.05-1.7c2.72-0.42,4.82-0.09,6.24,1
				c0.97,0.74,1.58,1.81,1.71,3.01c0.01,0.09,0.1,0.38,0.16,0.59c0.39,1.3,1.56,5.24-2.43,6.87
				C196.35,304.86,194.09,305.3,192.03,305.3z M191.74,300.73c1.2,0.02,3.06-0.18,4.33-0.7c0.03-0.01,0.05-0.02,0.07-0.03
				c-0.01-0.32-0.19-0.94-0.3-1.29c-0.13-0.44-0.26-0.87-0.32-1.31c-0.23-0.13-1.04-0.35-2.71-0.08c-0.2,0.03-0.37,0.06-0.53,0.08
				c-0.03,0.09-0.06,0.19-0.09,0.29C192.04,298.61,191.86,299.78,191.74,300.73z"/>
		</g>
		<g>
			<path class="st4" d="M194.22,329.2c-0.89,0-1.78-0.05-2.68-0.16c-1.27-0.16-2.42-0.23-3.53-0.3c-4.63-0.3-8.63-0.56-13.63-6.58
				c-1.65-1.98-3.03-2.95-4.26-3.81c-3.09-2.16-5.02-3.9-5.78-12.05c-1.22-13.07-0.04-20.64,3.83-24.54
				c3.72-3.75,13.5-9.14,13.92-9.37l0.35-0.19l0.39-0.06c0.06-0.01,6.24-1,11.25-1.65c3.46-0.45,4.41-0.39,6.5-0.25
				c1.09,0.07,2.58,0.17,5.05,0.23c0.68,0.02,1.32,0.03,1.91,0.03c5.8,0.09,8.99,0.14,12.18,5.71c2.76,4.83,3.54,9.78,4.3,14.57
				c0.08,0.49,0.15,0.98,0.23,1.47c0.88,5.45,0.56,11.33-0.95,17.49c-0.26,1.04-0.42,2.01-0.58,2.94
				c-0.71,4.19-1.33,7.81-8.88,10.94l-0.57,0.24C206.42,326.7,200.39,329.2,194.22,329.2z M183.94,276.6
				c-2.92,1.62-9.93,5.78-12.52,8.39c-2.75,2.77-3.57,9.6-2.52,20.89c0.6,6.45,1.62,7.17,3.85,8.73c1.39,0.97,3.11,2.18,5.15,4.63
				c3.75,4.5,6.11,4.66,10.41,4.94c1.12,0.07,2.39,0.16,3.79,0.33c5.93,0.73,11.88-1.74,19.42-4.86l0.57-0.24
				c5.21-2.16,5.49-3.82,6.11-7.48c0.16-0.97,0.35-2.06,0.65-3.27c1.36-5.56,1.66-10.83,0.88-15.67c-0.08-0.5-0.16-0.99-0.24-1.48
				c-0.72-4.58-1.41-8.91-3.75-13.01c-1.9-3.31-2.87-3.33-8.28-3.41c-0.61-0.01-1.25-0.02-1.95-0.04c-2.57-0.06-4.12-0.16-5.25-0.24
				c-1.94-0.13-2.59-0.17-5.6,0.22C190.45,275.58,185.37,276.37,183.94,276.6z"/>
		</g>
		<g>
			<path class="st5" d="M191.28,339.34c-11.67,0-17.4-2.91-22.87-7.89c-0.83-0.76-1.6-1.44-2.32-2.07
				c-4.88-4.31-7.83-6.91-10.9-16.51c-0.74-2.32-1.52-4.35-2.21-6.14c-2.46-6.38-4.24-10.99-0.46-18.44
				c1.76-3.47,2.89-6.92,3.88-9.96c1.49-4.55,2.66-8.15,5.4-9.55c3.01-1.54,9.94-5.64,10.87-6.19c0.76-0.57,1.31-1.02,1.8-1.43
				c2.35-1.94,3.17-2.45,9.89-3.99c3.27-0.75,3.94-1.23,4.26-1.46c1.39-1,2.36-0.92,5.97-0.59c6.75,0.61,12.34,1.97,19.27,4.7
				c0.63,0.25,1.26,0.49,1.88,0.72c5.89,2.24,11.45,4.36,14.81,12.65c0.97,2.4,1.82,4.1,2.57,5.6c1.82,3.65,3.02,6.06,3.39,12.87
				c0.08,1.5,0.19,2.87,0.29,4.2c0.51,6.72,0.88,11.58-2.81,19.57c-0.88,1.91-1.53,3.51-2.1,4.92c-2.09,5.15-3.24,7.99-10.45,11.87
				c-2.23,1.2-3.34,2.05-4.22,2.73c-2.77,2.13-3.79,2.63-16.38,3.85C197.23,339.18,194.08,339.34,191.28,339.34z M191.2,259.49
				c-0.88,0.62-2.1,1.3-5.85,2.16c-5.92,1.35-6.24,1.61-8,3.06c-0.53,0.43-1.18,0.97-2.07,1.64l-0.2,0.13
				c-0.32,0.19-7.88,4.68-11.22,6.39c-1.06,0.54-2.16,3.92-3.13,6.9c-0.99,3.04-2.23,6.83-4.15,10.61
				c-2.85,5.63-1.68,8.66,0.65,14.72c0.71,1.85,1.52,3.95,2.3,6.39c2.69,8.4,4.85,10.3,9.57,14.47c0.73,0.65,1.52,1.34,2.37,2.11
				c5.95,5.4,12.05,7.85,28.87,6.2c11.71-1.14,12.16-1.48,14.03-2.92c0.96-0.74,2.28-1.76,4.84-3.14c5.76-3.1,6.42-4.73,8.38-9.56
				c0.59-1.46,1.26-3.11,2.19-5.12c3.19-6.9,2.9-10.82,2.4-17.29c-0.1-1.35-0.21-2.74-0.29-4.3c-0.32-5.87-1.24-7.72-2.92-11.08
				c-0.75-1.5-1.68-3.37-2.71-5.93c-2.61-6.44-6.63-7.97-12.19-10.09c-0.63-0.24-1.27-0.49-1.93-0.74c-6.59-2.6-11.63-3.83-18-4.4
				C193.36,259.62,191.81,259.48,191.2,259.49z"/>
		</g>
	</g>
	<g>
		<path class="st4" d="M219.4,335.43c0,0,0.38-0.25,1.15-0.43c0.76-0.18,2.7-1.72,2.7-1.72l0.81,1.64l-0.15,1.45
			c0,0-0.86-0.21-1.45-0.26c-0.58-0.05-0.61-0.12-1.18,0.2c-0.56,0.32-0.72,0.34-0.76,1.02s0.93,1.84,1.07,2.31
			c0.14,0.47,0.69,1.57-2.06,0.53c-2.74-1.04-2.5-1.87-2.11-2.08C217.82,337.87,219.4,335.43,219.4,335.43z"/>
	</g>
</g>
<g>
	<g>
		<g>
			<g>
				<path class="st5" d="M413.35,355.32c-2.83,0-4.47-3.55-4.88-10.54c-0.01-1.16-0.02-2.26-0.04-3.34v-0.2
					c-0.03-2.01-0.06-3.91-0.06-6.14v-46.06c0.15-5.81-0.1-10.27-0.8-14.05c-0.63-3.32-1.53-6.46-2.7-9.34
					c-2.04-5.08-4.88-9.33-8.42-12.65c-3.3-3.08-7.22-5.36-11.66-6.77c-3.19-1.01-6.63-1.58-10.52-1.76
					c-1.29-0.06-2.55-0.08-3.64-0.05l-0.01-0.01l-0.62,0.02c-4.07,0.14-7.83,0.78-11.48,1.96c-4.54,1.47-8.7,3.72-12.34,6.69
					c-4.06,3.3-7.36,7.4-9.81,12.16c-3.17,6.17-4,11.76-4.21,13.88c-0.17,1.67-0.15,2.93-0.14,3.61v0.26
					c0.01,4.14,3.4,7.51,7.54,7.51s7.52-3.37,7.54-7.52c0-0.24,0.01-0.59,0.03-1.07l0.01-0.16c0.02-0.43,0.04-0.95,0.06-1.59
					l0.01-0.48c0.07-2.12,0.17-5.68,1.27-9.6c1.01-3.66,2.67-6.93,4.94-9.71c2.21-2.72,5.02-4.97,8.12-6.5
					c2.8-1.38,5.82-2.17,8.73-2.3c0.42-0.02,0.81-0.02,1.19-0.01c3.75,0.06,7.31,0.86,10.28,2.32c2.84,1.39,5.19,3.38,6.99,5.93
					c1.82,2.57,3.13,5.8,3.9,9.59c0.72,3.56,0.85,7.03,0.89,9.3c-0.53,6.3-3.79,9.48-8.51,12.31c-2.5,1.49-5.63,2.94-9.85,4.58
					c-2.53,0.95-5.1,1.88-7.61,2.79c-5.76,2.07-11.21,4.04-16.48,6.42c-4.9,2.22-8.62,4.35-11.7,6.69
					c-4.22,3.21-7.31,6.86-9.45,11.17c-1.46,2.95-2.43,6.17-2.89,9.61c-0.59,5.1-0.3,9.21,0.89,12.92c0.88,2.71,2.25,5.21,4.06,7.44
					c2.67,3.28,6.18,5.85,10.51,7.66c4.49,1.71,9.19,2.57,13.96,2.57c0.01,0,0.01,0,0.01,0c3.72,0,7.38-0.53,10.87-1.58
					c4.48-1.39,8.69-3.62,12.5-6.63c4.12-3.26,7.73-7.4,10.72-12.3c1.08-1.77,2.09-3.67,3.01-5.65v3.79
					c0,14.7,6.46,21.85,19.76,21.85h2.4l0.09-7.02H413.35z M393.56,299.73c-0.07,8.48-0.88,15.85-2.48,22.53
					c-1.5,6.26-3.69,11.8-6.51,16.48c-2.54,4.21-5.58,7.72-9.05,10.42c-3.15,2.46-6.57,4.2-10.16,5.16
					c-6.89,1.73-13.22,0.7-17.82-2.89c-1.96-1.56-3.47-3.51-4.49-5.78c-1.99-5.24-2.16-11.92-0.44-17.88
					c0.9-3.03,2.34-5.71,4.41-8.19c2.09-2.51,4.85-4.82,8.19-6.88c5.48-3.25,11.49-5.65,17.38-8c1.85-0.74,3.6-1.44,5.35-2.17
					c4.69-1.98,8.02-3.64,10.83-5.38c1.81-1.15,3.42-2.36,4.79-3.59V299.73z"/>
			</g>
		</g>
		<g>
			<g>
				<path class="st5" d="M535.03,295.87c-1.51-11.78-6.07-22.74-13.19-31.7c-4.27-5.38-9.3-9.81-14.94-13.18
					c-5.67-3.38-11.78-5.57-18.16-6.51c-2.9-0.43-5.84-0.58-8.76-0.48c-3.33,0.13-6.66,0.62-9.88,1.46
					c-5.91,1.54-11.49,4.24-16.58,8.01c-3.31,2.46-6.37,5.35-9.11,8.6v-64.8h-22.8v7.02h2.43c5.05,0,5.56,1.11,5.56,5.86v145.17
					h-7.99v7.02h30.78v-7.02h-7.98v-8.95c2.47,2.93,5.21,5.58,8.16,7.88c5,3.91,10.52,6.77,16.4,8.49c1.35,0.4,2.74,0.73,4.12,1.01
					c3.03,0.59,6.12,0.9,9.17,0.9c1.79,0,3.61-0.11,5.39-0.32c6.45-0.75,12.64-2.79,18.41-6.07c5.71-3.25,10.83-7.6,15.2-12.93
					c6.9-8.41,11.54-18.76,13.4-29.94C535.72,308.78,535.84,302.4,535.03,295.87z M520.1,313.04c-1.23,9.15-4.34,17.71-9,24.76
					c-3.06,4.62-6.69,8.5-10.81,11.53c-4.32,3.19-9.05,5.34-14.04,6.41c-3.96,0.84-7.94,0.99-11.86,0.42
					c-1.13-0.17-2.29-0.39-3.44-0.68c-4.97-1.24-9.7-3.55-14.05-6.86c-4.95-3.75-9.16-8.59-12.49-14.38v-60.15
					c3.51-6.1,7.97-11.14,13.25-14.98c4.41-3.2,9.18-5.4,14.18-6.55c2.39-0.55,4.83-0.84,7.23-0.88h1c2.38,0.04,4.78,0.33,7.14,0.89
					c5,1.17,9.72,3.45,14.01,6.78c4.07,3.16,7.65,7.17,10.61,11.93c4.47,7.15,7.38,15.74,8.42,24.86
					C520.87,301.89,520.82,307.57,520.1,313.04z"/>
			</g>
		</g>
		<g>
			<g>
				<path class="st5" d="M618.56,254.24c-0.34,2-1.44,3.73-3.08,4.9c-1.66,1.17-3.66,1.62-5.65,1.28l-0.15-0.02
					c-0.2-0.03-0.48-0.07-0.93-0.15l-0.34-0.06c-2.22-0.41-7.42-1.35-13.87,0.44c-4.95,1.37-9.53,4.01-13.62,7.84
					c-2.64,2.47-4.96,5.33-6.89,8.51c-1.2,1.97-2.29,4.12-3.23,6.38c-1.66,4.04-2.85,8.4-3.51,12.96c-0.59,4.05-0.6,6.91-0.6,6.94
					v52.06h7.99v7.02H543.9v-7.02h7.98v-95.95c0-4.75-0.51-5.86-5.55-5.86h-2.43v-7.02h22.79v25.77c2-3.98,4.24-7.47,6.85-10.66
					c4.71-5.74,10.31-10.09,16.64-12.91c6.5-2.91,12.54-3.57,16.47-3.61c1.83-0.03,3.3,0.09,4.2,0.19c0.71,0.08,1.2,0.17,1.46,0.22
					l0.09,0.02c1.99,0.34,3.72,1.44,4.89,3.09C618.46,250.25,618.91,252.25,618.56,254.24z"/>
			</g>
		</g>
		<g>
			<g>
				<path class="st5" d="M706.32,260.73c-5.08-5.22-10.96-9.28-17.49-12.06c-1.86-0.79-3.76-1.48-5.82-2.1
					c-3.1-0.95-6.09-1.58-9.13-1.93c-6.05-0.72-12.98-0.04-19.5,1.93c-2.06,0.62-3.96,1.31-5.82,2.1
					c-6.52,2.78-12.41,6.83-17.49,12.06c-11,11.31-17.3,27.15-17.29,43.46c0.01,16.3,6.34,32.11,17.38,43.4
					c5.05,5.16,10.92,9.2,17.45,12.01c1.42,0.61,2.86,1.17,4.41,1.7c5.04,1.72,10.29,2.59,15.58,2.59c5.3,0,10.6-0.87,15.77-2.59
					c1.55-0.53,2.99-1.08,4.41-1.7c6.53-2.81,12.4-6.85,17.45-12.01c11.04-11.29,17.37-27.1,17.38-43.4
					C723.62,287.88,717.32,272.04,706.32,260.73z M685.34,352.75c-1.18,0.68-2.36,1.27-3.5,1.75c-8.1,3.21-18.4,3.21-26.25,0.02
					c-1.17-0.49-2.36-1.09-3.53-1.77c-4.76-2.76-9.17-6.91-12.78-11.98c-7.01-9.84-10.7-22.49-10.69-36.58
					c0.01-14.05,3.73-26.67,10.77-36.5c3.59-5.03,8.01-9.16,12.76-11.96c1.53-0.9,3.08-1.65,4.6-2.24
					c5.65-1.97,11.39-2.56,17.05-1.75c4.21,0.63,7.98,1.93,11.5,3.99c4.75,2.8,9.17,6.93,12.76,11.96
					c7.04,9.83,10.76,22.45,10.77,36.5c0.01,14.09-3.68,26.74-10.69,36.58C694.5,345.84,690.08,349.99,685.34,352.75z"/>
			</g>
		</g>
	</g>
	<g>
		<g>
			<path class="st5" d="M451.66,384.26l-0.71,0.89c-1.25-1.16-2.85-1.87-4.78-1.87c-3.71,0-6.38,2.7-6.38,6.56
				c0,3.92,2.67,6.62,6.38,6.62c2.08,0,3.86-0.77,5.05-2.17l0.74,0.8c-1.37,1.6-3.42,2.52-5.82,2.52c-4.37,0-7.57-3.21-7.57-7.75
				c0-4.54,3.21-7.78,7.57-7.78C448.37,382.09,450.3,382.9,451.66,384.26z"/>
			<path class="st5" d="M474.34,389.84c0,4.57-3.21,7.78-7.63,7.78c-4.39,0-7.63-3.21-7.63-7.78c0-4.51,3.24-7.75,7.63-7.75
				C471.14,382.09,474.34,385.33,474.34,389.84z M460.3,389.87c0,3.89,2.7,6.59,6.41,6.59c3.74,0,6.41-2.7,6.41-6.59
				c0-3.89-2.67-6.59-6.41-6.59C463,383.28,460.3,385.98,460.3,389.87z"/>
			<path class="st5" d="M483.75,397.59v-22.03H485v22.03H483.75z"/>
			<path class="st5" d="M496.22,397.59v-22.03h1.25v22.03H496.22z"/>
			<path class="st5" d="M521.6,390.2h-13.51c0.18,3.77,2.79,6.29,6.38,6.29c2.11,0,3.98-0.77,5.23-2.14l0.71,0.8
				c-1.43,1.54-3.53,2.46-6,2.46c-4.37,0-7.54-3.21-7.54-7.75c0-4.54,3.18-7.78,7.54-7.78C518.96,382.09,521.69,385.42,521.6,390.2z
				 M520.48,389.1c-0.24-3.5-2.52-5.88-6.06-5.88c-3.47,0-6,2.38-6.29,5.88H520.48z"/>
			<path class="st5" d="M542.2,384.26l-0.71,0.89c-1.25-1.16-2.85-1.87-4.78-1.87c-3.71,0-6.38,2.7-6.38,6.56
				c0,3.92,2.67,6.62,6.38,6.62c2.08,0,3.86-0.77,5.05-2.17l0.74,0.8c-1.37,1.6-3.42,2.52-5.82,2.52c-4.37,0-7.57-3.21-7.57-7.75
				c0-4.54,3.21-7.78,7.57-7.78C538.91,382.09,540.84,382.9,542.2,384.26z"/>
			<path class="st5" d="M559.39,396.53c-0.98,0.68-2.08,1.1-3.24,1.1c-2.2,0.03-3.5-1.4-3.5-4.3v-9.74h-2.26v-1.07h2.26v-3.83h1.19
				v3.83h5.26v1.07h-5.26v9.59c0,2.2,0.86,3.27,2.46,3.24c0.89,0,1.81-0.33,2.61-0.89L559.39,396.53z"/>
			<path class="st5" d="M569.57,377.67c0,0.62-0.48,1.1-1.04,1.1c-0.56,0-1.04-0.47-1.04-1.1c0-0.59,0.47-1.07,1.04-1.07
				C569.1,376.6,569.57,377.08,569.57,377.67z M567.91,397.59v-15.47h1.22v15.47H567.91z"/>
			<path class="st5" d="M583.5,397.59l-6.27-15.47h1.34l5.58,14.13l5.55-14.13h1.31l-6.24,15.47H583.5z"/>
			<path class="st5" d="M611.46,390.2h-13.51c0.18,3.77,2.79,6.29,6.38,6.29c2.11,0,3.98-0.77,5.23-2.14l0.71,0.8
				c-1.43,1.54-3.53,2.46-6,2.46c-4.37,0-7.54-3.21-7.54-7.75c0-4.54,3.18-7.78,7.54-7.78C608.82,382.09,611.55,385.42,611.46,390.2
				z M610.33,389.1c-0.24-3.5-2.52-5.88-6.06-5.88c-3.47,0-6,2.38-6.29,5.88H610.33z"/>
		</g>
		<g>
			<rect x="405.2" y="390.18" class="st5" width="22.15" height="1"/>
		</g>
		<g>
			<rect x="622.63" y="390.18" class="st5" width="22.15" height="1"/>
		</g>
	</g>
</g>
</svg>
